<svg xmlns="http://www.w3.org/2000/svg" xmlns:xlink="http://www.w3.org/1999/xlink" width="1080" zoomAndPan="magnify" viewBox="0 0 810 809.999993" height="1080" preserveAspectRatio="xMidYMid meet" version="1.0"><defs><clipPath id="85dec2636d"><path d="M 72.359375 600.109375 L 731.640625 600.109375 L 731.640625 809.96875 L 72.359375 809.96875 Z M 72.359375 600.109375 " clip-rule="nonzero"/></clipPath><clipPath id="cfb7f23511"><path d="M 18.730469 68 L 205 68 L 205 195 L 18.730469 195 Z M 18.730469 68 " clip-rule="nonzero"/></clipPath><clipPath id="8347819d6c"><path d="M 472.015625 224.117188 L 778.46875 224.117188 L 778.46875 591.382812 L 472.015625 591.382812 Z M 472.015625 224.117188 " clip-rule="nonzero"/></clipPath></defs><g clip-path="url(#85dec2636d)"><path fill="#e6e6e6" d="M 72.550781 666.980469 C 72.550781 666.980469 350.835938 770.484375 369.472656 777.21875 C 567.191406 848.636719 780.882812 793.558594 721.332031 705.085938 C 700.066406 673.496094 493.300781 600.285156 493.300781 600.285156 L 72.550781 666.980469 " fill-opacity="1" fill-rule="nonzero"/></g><path fill="#7f4f3e" d="M 602.242188 558.402344 L 559.03125 558.402344 L 559.03125 359.222656 L 602.242188 359.222656 L 602.242188 558.402344 " fill-opacity="1" fill-rule="nonzero"/><path fill="#7f4f3e" d="M 87.796875 668.519531 L 78.265625 668.519531 C 71.972656 668.519531 66.875 663.421875 66.875 657.128906 L 66.875 363.875 C 66.875 357.582031 71.972656 352.484375 78.265625 352.484375 L 87.796875 352.484375 C 94.085938 352.484375 99.1875 357.582031 99.1875 363.875 L 99.1875 657.128906 C 99.1875 663.421875 94.085938 668.519531 87.796875 668.519531 " fill-opacity="1" fill-rule="nonzero"/><path fill="#7f4f3e" d="M 473.449219 649.125 L 441.136719 649.125 L 441.136719 355.753906 L 473.449219 355.753906 L 473.449219 649.125 " fill-opacity="1" fill-rule="nonzero"/><path fill="#7f4f3e" d="M 67.046875 364.488281 L 385.21875 436.960938 L 718.007812 346.730469 L 718.007812 330.769531 L 443.863281 324.523438 L 67.046875 344.703125 L 67.046875 364.488281 " fill-opacity="1" fill-rule="nonzero"/><path fill="#936450" d="M 67.046875 344.703125 L 387.425781 415.972656 L 660.867188 347.496094 L 443.863281 308.566406 L 67.046875 344.703125 " fill-opacity="1" fill-rule="nonzero"/><path fill="#1b1f3f" d="M 361.339844 339.171875 L 361.339844 333.035156 L 345.648438 334.171875 C 339.113281 333.40625 330.703125 332.980469 320.691406 332.980469 C 290.449219 332.980469 255.488281 336.882812 236.164062 342.109375 L 221.867188 343.148438 L 221.867188 349.4375 C 221.542969 353.550781 236.734375 356.421875 262.660156 356.421875 C 297.714844 356.421875 339.121094 351.171875 355.144531 344.699219 C 360.097656 342.703125 361.230469 341.371094 361.339844 339.171875 " fill-opacity="1" fill-rule="nonzero"/><path fill="#273263" d="M 355.144531 338.03125 C 339.121094 344.503906 297.714844 349.753906 262.660156 349.753906 C 227.601562 349.753906 212.175781 344.503906 228.199219 338.03125 C 244.222656 331.558594 285.632812 326.3125 320.6875 326.3125 C 355.742188 326.3125 371.171875 331.558594 355.144531 338.03125 " fill-opacity="1" fill-rule="nonzero"/><path fill="#21284f" d="M 307.542969 336.992188 C 307.542969 336.992188 304.242188 339.910156 287.914062 339.910156 C 271.585938 339.910156 268.285156 336.992188 268.285156 336.992188 L 268.285156 273.71875 L 307.542969 273.71875 L 307.542969 336.992188 " fill-opacity="1" fill-rule="nonzero"/><g clip-path="url(#cfb7f23511)"><path fill="#c7e7ff" d="M 204.753906 175.738281 L 51.441406 194.949219 L 18.730469 84.824219 L 171.195312 68.953125 L 204.753906 175.738281 " fill-opacity="1" fill-rule="nonzero"/></g><path fill="#eff3f9" d="M 41.261719 102.441406 C 40.683594 102.441406 40.183594 102.011719 40.113281 101.421875 C 40.035156 100.785156 40.492188 100.207031 41.125 100.132812 L 153.234375 86.738281 C 153.871094 86.660156 154.445312 87.113281 154.523438 87.75 C 154.597656 88.382812 154.144531 88.960938 153.507812 89.035156 L 41.402344 102.433594 C 41.355469 102.441406 41.308594 102.441406 41.261719 102.441406 " fill-opacity="1" fill-rule="nonzero"/><path fill="#eff3f9" d="M 49.40625 126.191406 C 48.828125 126.191406 48.328125 125.757812 48.257812 125.167969 C 48.183594 124.535156 48.636719 123.957031 49.273438 123.882812 L 161.378906 110.480469 C 162.015625 110.410156 162.59375 110.859375 162.667969 111.5 C 162.746094 112.132812 162.289062 112.710938 161.65625 112.785156 L 49.546875 126.183594 C 49.5 126.1875 49.453125 126.191406 49.40625 126.191406 " fill-opacity="1" fill-rule="nonzero"/><path fill="#eff3f9" d="M 57.929688 151.707031 C 57.347656 151.707031 56.847656 151.277344 56.777344 150.683594 C 56.703125 150.054688 57.15625 149.472656 57.792969 149.398438 L 169.898438 136 C 170.535156 135.925781 171.113281 136.378906 171.1875 137.015625 C 171.265625 137.652344 170.8125 138.226562 170.175781 138.304688 L 58.066406 151.699219 C 58.019531 151.707031 57.972656 151.707031 57.929688 151.707031 " fill-opacity="1" fill-rule="nonzero"/><path fill="#eff3f9" d="M 63.757812 177.171875 C 63.179688 177.171875 62.679688 176.738281 62.609375 176.148438 C 62.53125 175.515625 62.984375 174.941406 63.621094 174.863281 L 175.730469 161.46875 C 176.363281 161.390625 176.941406 161.84375 177.019531 162.476562 C 177.09375 163.113281 176.640625 163.691406 176.003906 163.765625 L 63.898438 177.164062 C 63.851562 177.167969 63.804688 177.171875 63.757812 177.171875 " fill-opacity="1" fill-rule="nonzero"/><path fill="#1b1f3f" d="M 451.632812 272.195312 L 163.460938 314.878906 L 78.074219 90.773438 L 83.03125 84.292969 L 366.246094 64.855469 L 456.585938 265.714844 L 451.632812 272.195312 " fill-opacity="1" fill-rule="nonzero"/><path fill="#21284f" d="M 456.585938 265.714844 L 168.414062 308.402344 L 83.03125 84.292969 L 371.203125 58.375 L 456.585938 265.714844 " fill-opacity="1" fill-rule="nonzero"/><path fill="#ffffff" d="M 443.476562 259.9375 L 175.53125 299.625 L 96.140625 91.25 L 364.085938 67.152344 L 443.476562 259.9375 " fill-opacity="1" fill-rule="nonzero"/><path fill="#daefff" d="M 398.515625 150.757812 L 364.085938 67.152344 L 96.140625 91.25 L 132.027344 185.445312 L 398.515625 150.757812 " fill-opacity="1" fill-rule="nonzero"/><path fill="#daefff" d="M 363.949219 239.070312 L 240.859375 256.679688 C 239.328125 256.898438 237.84375 256.015625 237.308594 254.5625 L 216.773438 199.128906 C 216.046875 197.160156 217.320312 195.023438 219.394531 194.730469 L 342.484375 177.121094 C 344.019531 176.902344 345.5 177.785156 346.039062 179.238281 L 366.570312 234.671875 C 367.300781 236.640625 366.027344 238.777344 363.949219 239.070312 " fill-opacity="1" fill-rule="nonzero"/><path fill="#ffffff" d="M 339.964844 197.675781 C 339.738281 196.082031 338.265625 194.972656 336.667969 195.199219 L 238.710938 209.191406 C 237.117188 209.417969 236.007812 210.898438 236.238281 212.492188 C 236.445312 213.949219 237.691406 214.996094 239.121094 214.996094 C 239.257812 214.996094 239.398438 214.984375 239.539062 214.964844 L 337.492188 200.972656 C 339.089844 200.746094 340.195312 199.265625 339.964844 197.675781 " fill-opacity="1" fill-rule="nonzero"/><path fill="#ffffff" d="M 346.964844 217.496094 C 346.738281 215.902344 345.261719 214.792969 343.664062 215.019531 L 245.710938 229.011719 C 244.117188 229.242188 243.007812 230.722656 243.234375 232.3125 C 243.441406 233.765625 244.691406 234.816406 246.117188 234.816406 C 246.253906 234.816406 246.394531 234.808594 246.53125 234.785156 L 344.492188 220.792969 C 346.082031 220.566406 347.191406 219.089844 346.964844 217.496094 " fill-opacity="1" fill-rule="nonzero"/><path fill="#1b1f3f" d="M 98.242188 92.5625 L 176.503906 297.96875 L 441.359375 258.734375 L 363.121094 68.742188 L 98.242188 92.5625 M 175.53125 301.125 C 174.917969 301.125 174.355469 300.75 174.132812 300.160156 L 94.742188 91.78125 C 94.574219 91.34375 94.621094 90.855469 94.871094 90.457031 C 95.121094 90.0625 95.539062 89.800781 96.007812 89.757812 L 363.949219 65.660156 C 364.601562 65.601562 365.21875 65.976562 365.46875 66.582031 L 444.859375 259.367188 C 445.035156 259.789062 445.003906 260.273438 444.777344 260.675781 C 444.550781 261.078125 444.152344 261.347656 443.695312 261.417969 L 175.75 301.109375 C 175.675781 301.117188 175.601562 301.125 175.53125 301.125 " fill-opacity="1" fill-rule="nonzero"/><path fill="#21274c" d="M 386.003906 116.441406 L 365.46875 66.578125 C 365.238281 66.015625 364.6875 65.652344 364.085938 65.652344 C 364.042969 65.652344 363.996094 65.65625 363.949219 65.660156 L 141.238281 85.691406 L 139.058594 80.222656 C 138.933594 79.910156 138.851562 79.589844 138.792969 79.277344 L 371.203125 58.375 L 394.710938 115.457031 L 386.003906 116.441406 " fill-opacity="1" fill-rule="nonzero"/><path fill="#1b1f3d" d="M 382.910156 116.792969 L 363.121094 68.742188 L 141.769531 87.019531 L 141.238281 85.691406 L 363.949219 65.65625 C 363.996094 65.652344 364.042969 65.652344 364.085938 65.652344 C 364.6875 65.652344 365.238281 66.015625 365.46875 66.582031 L 386.003906 116.441406 L 382.910156 116.792969 " fill-opacity="1" fill-rule="nonzero"/><path fill="#b6c7d4" d="M 147.285156 150.789062 C 145.277344 150.789062 143.441406 149.570312 142.683594 147.667969 L 119.953125 90.613281 L 142.394531 88.59375 L 162.105469 138.074219 C 162.863281 139.980469 164.699219 141.199219 166.710938 141.199219 C 166.894531 141.199219 167.082031 141.191406 167.269531 141.167969 L 382.910156 116.792969 L 385.21875 122.402344 L 147.847656 150.761719 C 147.660156 150.78125 147.472656 150.789062 147.285156 150.789062 " fill-opacity="1" fill-rule="nonzero"/><path fill="#1b1f38" d="M 385.21875 122.398438 L 382.910156 116.789062 L 385.21875 122.398438 M 119.953125 90.609375 L 119.636719 89.8125 C 119.511719 89.496094 119.429688 89.183594 119.371094 88.867188 L 141.769531 87.019531 L 142.394531 88.59375 L 119.953125 90.609375 " fill-opacity="1" fill-rule="nonzero"/><path fill="#aebfca" d="M 166.710938 141.199219 C 164.699219 141.199219 162.863281 139.976562 162.105469 138.074219 L 142.394531 88.589844 L 363.121094 68.742188 L 382.910156 116.789062 L 167.269531 141.167969 C 167.082031 141.191406 166.894531 141.199219 166.710938 141.199219 " fill-opacity="1" fill-rule="nonzero"/><path fill="#1b1f37" d="M 382.910156 116.789062 L 363.121094 68.742188 L 382.910156 116.789062 M 142.394531 88.589844 L 141.769531 87.019531 L 363.121094 68.742188 L 142.394531 88.589844 " fill-opacity="1" fill-rule="nonzero"/><path fill="#c7e7ff" d="M 212.234375 315.914062 L 145.542969 326.40625 L 119.582031 234.894531 L 186.269531 224.402344 L 212.234375 315.914062 " fill-opacity="1" fill-rule="nonzero"/><path fill="#eff3f9" d="M 133.976562 246.492188 C 133.417969 246.492188 132.925781 246.082031 132.835938 245.515625 C 132.734375 244.882812 133.164062 244.289062 133.796875 244.1875 L 178.785156 236.976562 C 179.417969 236.875 180.011719 237.304688 180.113281 237.9375 C 180.214844 238.570312 179.785156 239.164062 179.152344 239.265625 L 134.164062 246.476562 C 134.101562 246.488281 134.039062 246.492188 133.976562 246.492188 " fill-opacity="1" fill-rule="nonzero"/><path fill="#eff3f9" d="M 138.984375 266.71875 C 138.425781 266.71875 137.933594 266.3125 137.839844 265.742188 C 137.742188 265.109375 138.171875 264.515625 138.800781 264.414062 L 183.792969 257.199219 C 184.425781 257.101562 185.019531 257.53125 185.121094 258.164062 C 185.222656 258.792969 184.792969 259.386719 184.160156 259.492188 L 139.167969 266.703125 C 139.105469 266.710938 139.046875 266.71875 138.984375 266.71875 " fill-opacity="1" fill-rule="nonzero"/><path fill="#eff3f9" d="M 145.914062 288.71875 C 145.355469 288.71875 144.863281 288.316406 144.769531 287.746094 C 144.667969 287.113281 145.101562 286.519531 145.730469 286.421875 L 190.722656 279.207031 C 191.355469 279.105469 191.949219 279.535156 192.050781 280.167969 C 192.152344 280.800781 191.71875 281.390625 191.085938 281.496094 L 146.097656 288.707031 C 146.035156 288.714844 145.972656 288.71875 145.914062 288.71875 " fill-opacity="1" fill-rule="nonzero"/><path fill="#eff3f9" d="M 151.917969 308 C 151.359375 308 150.867188 307.589844 150.773438 307.023438 C 150.671875 306.394531 151.101562 305.796875 151.734375 305.695312 L 196.722656 298.484375 C 197.355469 298.382812 197.953125 298.8125 198.050781 299.445312 C 198.152344 300.078125 197.722656 300.671875 197.09375 300.773438 L 152.101562 307.984375 C 152.039062 307.992188 151.976562 308 151.917969 308 " fill-opacity="1" fill-rule="nonzero"/><path fill="#e3f3ff" d="M 508.101562 101.339844 L 152.914062 141.492188 C 150.128906 141.804688 147.476562 140.21875 146.4375 137.617188 L 117.53125 65.046875 C 116.003906 61.214844 118.566406 56.984375 122.671875 56.5625 L 479.859375 19.878906 C 482.644531 19.59375 485.273438 21.203125 486.289062 23.808594 L 513.191406 92.902344 C 514.675781 96.707031 512.15625 100.878906 508.101562 101.339844 " fill-opacity="1" fill-rule="nonzero"/><path fill="#1b1f3f" d="M 257.761719 367.105469 L 353.667969 385.9375 C 355.148438 386.226562 356.6875 386.210938 358.1875 385.890625 L 512.742188 352.523438 C 514.453125 352.152344 515.707031 350.628906 515.734375 348.890625 L 515.773438 346.167969 L 445.488281 332.34375 L 255.699219 360.964844 L 255.644531 364.476562 C 255.625 365.761719 256.507812 366.859375 257.761719 367.105469 " fill-opacity="1" fill-rule="nonzero"/><path fill="#273263" d="M 255.699219 360.964844 L 353.75 380.21875 C 355.234375 380.507812 356.773438 380.492188 358.269531 380.167969 L 515.773438 346.167969 L 447.160156 327.066406 C 446.113281 326.777344 445.007812 326.726562 443.921875 326.921875 L 255.699219 360.964844 " fill-opacity="1" fill-rule="nonzero"/><path fill="#f6af9a" d="M 538.929688 652.636719 C 538.929688 652.636719 539.285156 688.320312 539.285156 699.273438 C 539.285156 710.222656 531.550781 726.949219 506.816406 716.351562 C 500.457031 713.171875 476.394531 699.625 465.089844 692.207031 C 453.785156 684.789062 444.265625 681.789062 439.667969 668.714844 C 435.074219 655.644531 436.246094 655.574219 450.019531 656.28125 C 463.800781 656.988281 487.898438 661.398438 495.121094 663.238281 C 500.203125 664.53125 499.613281 657.105469 499.640625 651.804688 C 499.777344 621.324219 535.753906 616.605469 538.929688 652.636719 " fill-opacity="1" fill-rule="nonzero"/><path fill="#1b1f3f" d="M 550.308594 707.367188 C 550.308594 707.367188 551.765625 715.09375 551.539062 716.054688 C 551.3125 717.015625 539.976562 723.941406 523.210938 724.816406 C 517.753906 724.933594 509.726562 723.171875 507.433594 721.601562 C 505.132812 720.03125 486.085938 707.695312 478.011719 703.726562 C 469.933594 699.757812 446.753906 690.179688 442.082031 685.539062 C 437.414062 680.902344 435.476562 664.832031 436.582031 657.125 L 550.308594 707.367188 " fill-opacity="1" fill-rule="nonzero"/><path fill="#1b1f3f" d="M 499.484375 659.789062 C 499.484375 659.789062 491.679688 659.097656 487.261719 657.335938 C 482.84375 655.574219 468.597656 648.542969 457.609375 648.015625 C 446.40625 647.480469 441.125 648.121094 437.25 654.207031 C 433.371094 660.289062 437.703125 675.265625 442.34375 679.945312 C 446.980469 684.628906 460.867188 691.144531 471.753906 696.109375 C 482.636719 701.078125 498.476562 710.839844 502.667969 713.25 C 506.859375 715.660156 515.988281 721.472656 531.519531 717.925781 C 547.054688 714.378906 549.214844 710.558594 550.503906 708.527344 C 551.796875 706.5 544.957031 673.667969 541.789062 664.925781 C 538.5 655.847656 530.074219 658.683594 526.492188 659.441406 C 517.523438 661.351562 515.496094 663.863281 512.9375 669.136719 C 511.609375 671.867188 507.890625 675.328125 506.128906 674.933594 C 504.375 674.539062 497.207031 669.855469 499.484375 659.789062 " fill-opacity="1" fill-rule="nonzero"/><path fill="#1b1f3f" d="M 591.523438 415.519531 C 591.523438 415.519531 536.351562 404.851562 513.714844 408.230469 C 497.839844 410.605469 471.203125 415.476562 463.660156 429.789062 L 584.238281 456.894531 L 591.523438 415.519531 " fill-opacity="1" fill-rule="nonzero"/><path fill="#1b1f3f" d="M 494.929688 441.371094 C 494.929688 441.371094 485.027344 465.535156 485.027344 505.566406 C 485.027344 543.976562 490.726562 649.109375 490.726562 649.109375 L 545.019531 648.660156 C 545.019531 648.660156 556.914062 512.234375 557.171875 506.015625 C 557.433594 499.792969 514.664062 441.921875 494.929688 441.371094 " fill-opacity="1" fill-rule="nonzero"/><path fill="#f6af9a" d="M 475.195312 669.324219 C 475.195312 669.324219 475.550781 704.882812 475.550781 715.792969 C 475.550781 726.710938 467.839844 743.378906 443.191406 732.816406 C 436.855469 729.648438 412.875 716.148438 401.605469 708.753906 C 390.339844 701.363281 380.851562 698.371094 376.273438 685.347656 C 371.699219 672.320312 372.863281 672.25 386.59375 672.953125 C 400.328125 673.65625 424.339844 678.050781 431.535156 679.886719 C 436.601562 681.175781 436.015625 673.773438 436.039062 668.492188 C 436.175781 638.117188 472.027344 633.414062 475.195312 669.324219 " fill-opacity="1" fill-rule="nonzero"/><path fill="#21284f" d="M 486.53125 723.863281 C 486.53125 723.863281 487.984375 731.5625 487.761719 732.523438 C 487.53125 733.476562 476.238281 740.378906 459.527344 741.25 C 454.09375 741.367188 446.09375 739.613281 443.804688 738.046875 C 441.515625 736.484375 422.535156 724.191406 414.480469 720.234375 C 406.4375 716.28125 383.335938 706.738281 378.679688 702.113281 C 374.027344 697.492188 366.550781 684.804688 367.65625 677.125 L 486.53125 723.863281 " fill-opacity="1" fill-rule="nonzero"/><path fill="#21284f" d="M 435.890625 676.445312 C 435.890625 676.445312 428.113281 675.757812 423.707031 674.003906 C 419.308594 672.246094 405.105469 665.242188 394.15625 664.714844 C 382.996094 664.179688 372.253906 669.257812 368.394531 675.324219 C 364.535156 681.386719 374.324219 691.871094 378.941406 696.539062 C 383.5625 701.203125 397.40625 707.695312 408.253906 712.644531 C 419.097656 717.59375 434.886719 727.324219 439.0625 729.726562 C 443.238281 732.128906 452.335938 737.921875 467.816406 734.386719 C 483.296875 730.851562 485.449219 727.042969 486.738281 725.019531 C 488.023438 723 481.203125 690.277344 478.046875 681.566406 C 474.769531 672.523438 466.359375 675.285156 462.804688 676.105469 C 453.371094 678.265625 451.84375 680.511719 449.292969 685.765625 C 447.96875 688.484375 444.265625 691.933594 442.511719 691.542969 C 440.761719 691.148438 433.617188 686.484375 435.890625 676.445312 " fill-opacity="1" fill-rule="nonzero"/><path fill="#21284f" d="M 421.371094 452.988281 C 421.371094 452.988281 412.15625 467.214844 416.363281 523.617188 C 419.269531 562.574219 428.792969 663.453125 428.792969 663.453125 L 485.027344 666.230469 C 485.027344 666.230469 505.554688 522.007812 505.816406 515.679688 C 506.074219 509.351562 441.105469 453.539062 421.371094 452.988281 " fill-opacity="1" fill-rule="nonzero"/><path fill="#1b1f3f" d="M 487.988281 528.726562 C 488.972656 522.667969 489.695312 517.730469 489.769531 515.878906 C 489.863281 513.65625 484.621094 504.917969 476.933594 494.507812 L 455.1875 492.273438 C 455.1875 492.273438 467.269531 509.082031 487.988281 528.726562 " fill-opacity="1" fill-rule="nonzero"/><path fill="#21284f" d="M 615.199219 447.898438 C 615.199219 447.898438 515.25 428.636719 493.382812 426.035156 C 471.519531 423.429688 431.648438 424.960938 420.789062 453.886719 C 409.960938 482.730469 501.714844 524.414062 552.730469 528.578125 C 603.75 532.742188 615.199219 447.898438 615.199219 447.898438 " fill-opacity="1" fill-rule="nonzero"/><path fill="#daefff" d="M 618.050781 161.769531 C 618.050781 161.769531 618.847656 174.148438 612.847656 177.90625 C 571.386719 203.871094 567.632812 216.121094 561.734375 223.871094 C 556.75 230.421875 551.207031 295.792969 565.988281 324.523438 C 582.84375 357.300781 579.039062 393.136719 574.746094 417.625 C 571.1875 437.941406 569.4375 468.410156 598.117188 483.230469 C 623.652344 496.429688 693.289062 478.164062 714.113281 449.535156 C 714.113281 449.535156 697.1875 372.957031 719.753906 303.148438 C 735.894531 253.203125 729.242188 199.976562 696.855469 180.863281 C 673.027344 166.804688 657.746094 168.464844 657.746094 149.722656 L 618.050781 161.769531 " fill-opacity="1" fill-rule="nonzero"/><path fill="#bfdcf2" d="M 568.789062 295.195312 C 569.925781 306.300781 565.367188 309.148438 565.726562 316.496094 C 566.324219 328.851562 574.285156 342.515625 576.472656 355.183594 C 596.585938 320.304688 601.917969 275.242188 601.917969 275.242188 L 568.789062 295.195312 " fill-opacity="1" fill-rule="nonzero"/><path fill="#f6af9a" d="M 612.988281 177.796875 C 622.578125 177.378906 644.898438 175.429688 666.714844 166.101562 C 664.515625 164.632812 661.257812 159.882812 661.257812 150.316406 L 618.054688 161.769531 C 618.054688 161.769531 618.5625 173.542969 612.988281 177.796875 " fill-opacity="1" fill-rule="nonzero"/><path fill="#e57e73" d="M 562.777344 97.253906 C 562.777344 97.253906 561.734375 103.152344 558.609375 107.546875 C 555.15625 112.414062 554.445312 115.179688 557.800781 116.683594 C 561.160156 118.1875 563.816406 118.421875 563.816406 118.421875 L 562.777344 97.253906 " fill-opacity="1" fill-rule="nonzero"/><path fill="#f6af9a" d="M 588.570312 27.511719 C 588.570312 27.511719 571.21875 37.570312 567.058594 55.617188 C 563.398438 71.464844 560.117188 102.457031 564.277344 132.296875 C 568.445312 162.136719 592.042969 165.957031 620.84375 145.480469 C 649.644531 125.011719 664.21875 76.085938 653.117188 49.371094 C 642.011719 22.65625 607.308594 17.796875 588.570312 27.511719 " fill-opacity="1" fill-rule="nonzero"/><path fill="#e57e73" d="M 566.242188 113.5625 C 566.242188 113.5625 567.054688 110.558594 570.984375 110.09375 C 574.921875 109.632812 579.316406 109.746094 583.25 109.402344 C 587.179688 109.054688 589.03125 113.214844 588.453125 116.109375 C 587.875 119 582.554688 118.652344 578.851562 118.882812 C 575.152344 119.117188 565.199219 120.964844 566.242188 113.5625 " fill-opacity="1" fill-rule="nonzero"/><path fill="#21284f" d="M 576.191406 86.875 C 575.96875 86.875 575.742188 86.796875 575.558594 86.636719 C 572.019531 83.511719 565.421875 84.542969 565.355469 84.550781 C 564.835938 84.632812 564.34375 84.28125 564.261719 83.761719 C 564.175781 83.242188 564.53125 82.753906 565.050781 82.667969 C 565.355469 82.613281 572.601562 81.480469 576.824219 85.207031 C 577.21875 85.554688 577.257812 86.160156 576.90625 86.550781 C 576.71875 86.765625 576.460938 86.875 576.191406 86.875 " fill-opacity="1" fill-rule="nonzero"/><path fill="#21284f" d="M 572.171875 96.550781 C 572.171875 99.367188 570.894531 101.652344 569.328125 101.652344 C 567.75 101.652344 566.472656 99.367188 566.472656 96.550781 C 566.472656 93.734375 567.75 91.453125 569.328125 91.453125 C 570.894531 91.453125 572.171875 93.734375 572.171875 96.550781 " fill-opacity="1" fill-rule="nonzero"/><path fill="#e57e73" d="M 568.726562 130.246094 C 567.964844 130.203125 567.210938 130.125 566.46875 130.027344 C 565.730469 129.925781 564.960938 129.800781 564.292969 129.636719 C 564.195312 129.613281 564.09375 129.601562 563.992188 129.601562 C 563.96875 129.605469 563.945312 129.609375 563.925781 129.609375 C 564.023438 130.390625 564.125 131.167969 564.230469 131.949219 C 565.011719 131.929688 565.722656 131.863281 566.460938 131.777344 C 567.25 131.683594 568.03125 131.5625 568.804688 131.410156 C 570.351562 131.117188 571.867188 130.703125 573.320312 130.179688 C 571.777344 130.324219 570.242188 130.34375 568.726562 130.246094 " fill-opacity="1" fill-rule="nonzero"/><path fill="#21284f" d="M 567.636719 53.304688 C 567.636719 53.304688 572.722656 63.132812 583.710938 71.582031 C 591.917969 77.882812 596.550781 86.152344 596.898438 92.746094 C 597.246094 99.335938 598.285156 105.234375 601.0625 107.316406 C 603.839844 109.402344 607.308594 122.234375 609.042969 132.992188 C 610.78125 143.75 612.167969 146.175781 610.429688 154.507812 C 608.699219 162.832031 605.570312 168.386719 613.902344 169.425781 C 622.230469 170.46875 631.601562 167.347656 637.152344 162.832031 C 642.707031 158.324219 648.253906 161.792969 654.503906 160.40625 C 660.75 159.015625 666.648438 156.589844 670.8125 154.851562 C 674.976562 153.117188 684.34375 151.386719 687.121094 146.871094 C 689.898438 142.363281 688.160156 130.566406 685.390625 122.929688 C 682.613281 115.296875 678.445312 102.460938 680.179688 89.273438 C 681.917969 76.089844 663.347656 21.679688 626.046875 17.800781 C 586.023438 13.632812 571.21875 35.84375 567.636719 53.304688 " fill-opacity="1" fill-rule="nonzero"/><path fill="#f6af9a" d="M 600.566406 106.96875 C 600.640625 103.605469 601.492188 100.304688 603.007812 97.300781 C 605.488281 92.371094 608.429688 86.425781 614.863281 87.34375 C 624.578125 88.734375 624.789062 104.871094 617.78125 111.292969 C 611.105469 117.414062 600.1875 123.273438 600.566406 106.96875 " fill-opacity="1" fill-rule="nonzero"/><path fill="#e57e73" d="M 616.96875 102.03125 C 614.207031 100.160156 610.992188 101.707031 609.300781 102.816406 C 610.832031 99.226562 613.265625 95.109375 616.335938 95.109375 C 616.398438 95.109375 616.46875 95.109375 616.535156 95.113281 C 616.820312 95.128906 617.066406 94.914062 617.082031 94.625 C 617.101562 94.335938 616.878906 94.089844 616.589844 94.078125 C 610.226562 93.710938 606.609375 107.191406 606.457031 107.765625 C 606.382812 108.042969 606.550781 108.328125 606.832031 108.398438 C 606.875 108.410156 606.917969 108.414062 606.960938 108.414062 C 607.195312 108.414062 607.402344 108.261719 607.460938 108.03125 C 607.476562 107.984375 607.867188 106.515625 608.59375 104.585938 C 608.671875 104.5625 608.746094 104.527344 608.808594 104.46875 C 608.851562 104.433594 613.167969 100.710938 616.382812 102.890625 C 616.625 103.054688 616.945312 102.988281 617.109375 102.75 C 617.269531 102.515625 617.207031 102.1875 616.96875 102.03125 " fill-opacity="1" fill-rule="nonzero"/><path fill="#f6af9a" d="M 508.214844 333.539062 C 508.214844 333.539062 476.980469 336.660156 451.46875 340.304688 C 425.964844 343.949219 400.976562 343.425781 396.292969 339.261719 C 391.605469 335.097656 375.988281 325.207031 362.453125 327.8125 C 358.289062 329.371094 358.289062 331.457031 354.644531 331.457031 C 351 331.457031 331.21875 335.621094 331.21875 339.785156 C 331.21875 342.386719 345.796875 339.261719 349.441406 340.304688 C 353.082031 341.34375 363.492188 353.839844 371.820312 355.917969 C 380.152344 358 383.277344 356.960938 385.878906 357.484375 C 388.484375 358 472.816406 380.90625 505.089844 382.984375 C 516.023438 376.738281 517.585938 350.195312 508.214844 333.539062 " fill-opacity="1" fill-rule="nonzero"/><path fill="#f6af9a" d="M 583.242188 202.789062 C 583.242188 202.789062 557.8125 225.113281 546.875 256.863281 C 535.945312 288.617188 511.339844 317.402344 505.613281 326.769531 C 499.882812 336.140625 487.390625 348.632812 485.828125 362.167969 C 484.265625 375.699219 485.828125 380.90625 505.089844 382.988281 C 524.351562 385.070312 536.15625 368.714844 559.230469 343.429688 C 586.296875 313.757812 601.351562 267.457031 603.066406 239.433594 C 605.011719 207.585938 603.546875 193.941406 583.242188 202.789062 " fill-opacity="1" fill-rule="nonzero"/><path fill="#daefff" d="M 585.355469 199.742188 C 585.355469 199.742188 563.886719 211.742188 546.609375 251.113281 C 533.679688 280.59375 511.042969 311.808594 511.042969 311.808594 C 511.042969 311.808594 532.160156 336.660156 561.3125 350.195312 C 561.3125 350.195312 595.667969 304.910156 601.917969 275.242188 C 608.164062 245.570312 618.152344 180.480469 585.355469 199.742188 " fill-opacity="1" fill-rule="nonzero"/><path fill="#303d70" d="M 645.726562 707.5625 L 628.699219 707.5625 L 628.699219 624.902344 L 645.726562 624.902344 L 645.726562 707.5625 " fill-opacity="1" fill-rule="nonzero"/><path fill="#21284f" d="M 611.949219 577.621094 L 617.617188 634.832031 C 618.394531 642.675781 624.988281 648.648438 632.867188 648.648438 L 643.109375 648.648438 C 651.148438 648.648438 657.820312 642.441406 658.398438 634.421875 L 662.492188 577.621094 L 611.949219 577.621094 " fill-opacity="1" fill-rule="nonzero"/><path fill="#21284f" d="M 710.757812 734.808594 L 703.863281 721.289062 C 698.789062 711.347656 688.574219 705.085938 677.414062 705.085938 L 597.046875 705.085938 C 585.882812 705.085938 575.667969 711.347656 570.59375 721.289062 L 563.699219 734.808594 L 578.40625 734.808594 L 580.410156 731.097656 C 584.222656 724.039062 591.597656 719.640625 599.617188 719.640625 L 674.832031 719.640625 C 682.84375 719.640625 690.207031 724.023438 694.023438 731.066406 L 696.050781 734.808594 L 710.757812 734.808594 " fill-opacity="1" fill-rule="nonzero"/><path fill="#1b1f3f" d="M 582.523438 743.941406 C 582.523438 750.738281 577.019531 756.246094 570.222656 756.246094 C 563.425781 756.246094 557.914062 750.738281 557.914062 743.941406 C 557.914062 737.144531 563.425781 731.636719 570.222656 731.636719 C 577.019531 731.636719 582.523438 737.144531 582.523438 743.941406 " fill-opacity="1" fill-rule="nonzero"/><path fill="#1b1f3f" d="M 716.175781 743.941406 C 716.175781 750.738281 710.667969 756.246094 703.871094 756.246094 C 697.078125 756.246094 691.570312 750.738281 691.570312 743.941406 C 691.570312 737.144531 697.078125 731.636719 703.871094 731.636719 C 710.667969 731.636719 716.175781 737.144531 716.175781 743.941406 " fill-opacity="1" fill-rule="nonzero"/><path fill="#21284f" d="M 643.902344 710.820312 L 629.335938 710.820312 L 629.335938 741.78125 L 643.902344 741.78125 L 643.902344 710.820312 " fill-opacity="1" fill-rule="nonzero"/><path fill="#1b1f3f" d="M 648.921875 743.941406 C 648.921875 750.738281 643.414062 756.246094 636.617188 756.246094 C 629.820312 756.246094 624.3125 750.738281 624.3125 743.941406 C 624.3125 737.144531 629.820312 731.636719 636.617188 731.636719 C 643.414062 731.636719 648.921875 737.144531 648.921875 743.941406 " fill-opacity="1" fill-rule="nonzero"/><g clip-path="url(#8347819d6c)"><path fill="#ffcc70" d="M 772.144531 470.960938 C 765.910156 503.351562 755.304688 525.183594 746.234375 538.90625 L 746.214844 538.941406 C 745.792969 540.320312 731.648438 584.816406 643.238281 590.707031 C 553.441406 596.6875 497.207031 552.023438 497.207031 552.023438 C 492.863281 549.664062 488.113281 546.597656 483.753906 542.777344 C 471.261719 531.851562 467.609375 516.246094 479.058594 513.636719 C 490.523438 511.027344 529.027344 512.070312 557.671875 489.175781 C 586.292969 466.261719 578.496094 387.152344 596.195312 309.589844 C 613.890625 232.03125 682.078125 225.785156 682.078125 225.785156 C 712.285156 219.539062 736.230469 234.117188 736.230469 234.117188 C 781.523438 286.171875 784.636719 405.890625 772.144531 470.960938 " fill-opacity="1" fill-rule="nonzero"/></g><path fill="#f2c26a" d="M 608.683594 465.75 C 614.414062 432.957031 614.414062 380.910156 618.578125 319.488281 C 621.121094 281.886719 630.304688 257.550781 637.042969 244.335938 C 620.378906 256.523438 603.71875 276.609375 596.1875 309.597656 C 578.488281 387.152344 586.300781 466.273438 557.667969 489.175781 C 535.585938 506.835938 507.621094 510.257812 490.726562 512.09375 C 545.289062 529.515625 603.15625 497.390625 608.683594 465.75 " fill-opacity="1" fill-rule="nonzero"/><path fill="#7f4f3e" d="M 386.375 778.871094 L 375.140625 778.871094 C 369.320312 778.871094 364.601562 774.152344 364.601562 768.332031 L 364.601562 431.503906 C 364.601562 425.683594 369.320312 420.96875 375.140625 420.96875 L 386.375 420.96875 C 392.195312 420.96875 396.914062 425.683594 396.914062 431.503906 L 396.914062 768.332031 C 396.914062 774.152344 392.195312 778.871094 386.375 778.871094 " fill-opacity="1" fill-rule="nonzero"/></svg>