<svg xmlns="http://www.w3.org/2000/svg" xmlns:xlink="http://www.w3.org/1999/xlink" width="1080" zoomAndPan="magnify" viewBox="0 0 810 809.999993" height="1080" preserveAspectRatio="xMidYMid meet" version="1.0"><defs><clipPath id="573fa613f7"><path d="M 381 732 L 456 732 L 456 768.101562 L 381 768.101562 Z M 381 732 " clip-rule="nonzero"/></clipPath><clipPath id="e830496e8a"><path d="M 270 732 L 344 732 L 344 768.101562 L 270 768.101562 Z M 270 732 " clip-rule="nonzero"/></clipPath><clipPath id="1822efe494"><path d="M 375 16.601562 L 451 16.601562 L 451 99 L 375 99 Z M 375 16.601562 " clip-rule="nonzero"/></clipPath></defs><rect x="-81" width="972" fill="#ffffff" y="-80.999999" height="971.999992" fill-opacity="1"/><rect x="-81" width="972" fill="#ffffff" y="-80.999999" height="971.999992" fill-opacity="1"/><g clip-path="url(#573fa613f7)"><path fill="#2e1715" d="M 426.953125 734.652344 L 425.085938 739.914062 C 424.746094 740.761719 424.238281 741.441406 423.390625 741.949219 L 383.675781 761.464844 C 382.488281 761.976562 381.808594 763.332031 381.808594 764.691406 C 381.808594 766.726562 383.335938 768.253906 385.203125 768.253906 L 451.898438 766.21875 C 453.765625 766.21875 455.125 764.519531 455.125 762.65625 L 455.125 736.007812 C 455.125 733.972656 453.597656 732.445312 451.730469 732.445312 L 430.007812 732.445312 C 428.648438 732.277344 427.292969 733.125 426.953125 734.652344 Z M 426.953125 734.652344 " fill-opacity="1" fill-rule="nonzero"/></g><g clip-path="url(#e830496e8a)"><path fill="#2e1715" d="M 315.453125 734.652344 L 313.585938 739.914062 C 313.246094 740.761719 312.738281 741.441406 311.886719 741.949219 L 272.007812 761.296875 C 270.816406 761.976562 270.140625 763.164062 270.140625 764.519531 C 270.140625 766.558594 271.667969 768.085938 273.535156 768.085938 L 340.230469 766.046875 C 342.097656 766.046875 343.453125 764.351562 343.453125 762.484375 L 343.453125 735.839844 C 343.453125 733.804688 341.925781 732.277344 340.058594 732.277344 L 318.507812 732.277344 C 317.148438 732.277344 315.960938 733.125 315.453125 734.652344 Z M 315.453125 734.652344 " fill-opacity="1" fill-rule="nonzero"/></g><path fill="#f6af9a" d="M 396.914062 124.707031 L 427.632812 117.070312 L 433.0625 120.804688 L 396.234375 183.597656 L 382.65625 148.128906 Z M 396.914062 124.707031 " fill-opacity="1" fill-rule="nonzero"/><g clip-path="url(#1822efe494)"><path fill="#2e1715" d="M 405.398438 97.046875 C 405.398438 97.046875 445.960938 109.773438 450.371094 60.898438 C 451.5625 47.488281 449.355469 32.554688 437.8125 24.070312 C 430.347656 18.808594 421.183594 17.453125 412.359375 16.941406 C 403.703125 16.601562 394.539062 17.621094 387.242188 22.035156 C 381.980469 25.425781 378.414062 30.6875 376.71875 36.796875 C 376.210938 38.496094 375.699219 43.417969 375.699219 45.453125 C 375.699219 45.792969 405.398438 97.046875 405.398438 97.046875 Z M 405.398438 97.046875 " fill-opacity="1" fill-rule="nonzero"/></g><path fill="#f6af9a" d="M 427.632812 78.378906 L 427.460938 163.914062 L 397.59375 163.574219 C 397.59375 163.574219 397.421875 100.949219 397.761719 98.914062 Z M 427.632812 78.378906 " fill-opacity="1" fill-rule="nonzero"/><path fill="#2e1715" d="M 397.59375 101.117188 L 421.523438 100.101562 L 397.59375 118.769531 Z M 397.59375 101.117188 " fill-opacity="1" fill-rule="nonzero"/><path fill="#f6af9a" d="M 453.765625 71.929688 C 452.238281 80.074219 444.433594 86.695312 436.457031 81.941406 C 436.285156 81.773438 436.117188 81.941406 436.117188 82.109375 C 436.117188 82.960938 435.777344 83.640625 435.609375 84.316406 C 432.554688 93.820312 424.578125 101.457031 415.074219 104.34375 C 401.328125 108.417969 384.015625 102.644531 378.585938 88.558594 C 377.738281 86.523438 377.058594 83.808594 376.886719 81.601562 C 376.886719 81.601562 375.699219 49.527344 375.53125 45.625 C 389.617188 45.625 403.363281 46.640625 414.902344 39.003906 C 415.074219 39.003906 415.242188 39.003906 415.242188 39.175781 C 417.957031 45.792969 421.863281 52.242188 429.835938 54.957031 C 430.007812 54.957031 430.007812 54.957031 430.007812 55.128906 L 430.007812 64.121094 C 430.007812 64.121094 430.007812 64.292969 430.175781 64.292969 L 432.382812 64.292969 L 432.554688 64.121094 C 432.722656 63.613281 433.570312 62.085938 434.589844 60.726562 C 435.4375 59.710938 436.625 59.03125 437.984375 58.691406 C 440.359375 57.671875 443.074219 57.671875 445.621094 58.519531 C 449.523438 59.710938 451.730469 61.914062 452.917969 64.800781 C 453.765625 66.835938 453.9375 69.214844 453.765625 71.929688 Z M 453.765625 71.929688 " fill-opacity="1" fill-rule="nonzero"/><path fill="#2e1715" d="M 392.160156 80.582031 C 392.160156 80.921875 391.824219 81.261719 391.484375 81.261719 L 390.125 81.09375 C 389.617188 81.09375 389.105469 81.09375 388.597656 81.09375 C 387.578125 80.753906 388.089844 79.394531 388.257812 78.886719 C 388.769531 77.191406 389.105469 75.324219 389.617188 73.625 C 389.785156 72.777344 391.144531 73.117188 390.972656 73.964844 C 390.632812 75.152344 390.464844 76 390.125 77.191406 C 390.125 77.699219 389.957031 78.378906 389.785156 78.886719 C 389.785156 79.226562 389.617188 79.394531 389.617188 79.734375 C 389.617188 79.90625 389.617188 79.90625 389.617188 80.074219 C 389.957031 80.074219 390.125 80.074219 390.296875 80.074219 C 390.632812 80.074219 391.144531 80.246094 391.484375 80.246094 C 391.824219 80.246094 392.160156 80.246094 392.160156 80.582031 Z M 392.160156 80.582031 " fill-opacity="1" fill-rule="nonzero"/><path fill="#2e1715" d="M 384.015625 58.691406 C 385.882812 58.691406 388.597656 58.691406 390.125 59.710938 C 390.804688 60.046875 390.972656 60.726562 390.464844 61.238281 C 390.296875 61.578125 390.125 61.578125 389.785156 61.746094 C 388.089844 62.425781 386.390625 62.59375 384.695312 62.59375 C 383.507812 62.59375 382.320312 62.59375 381.128906 62.425781 C 380.113281 62.253906 378.753906 62.085938 377.90625 61.578125 C 377.566406 61.40625 377.398438 61.066406 377.398438 60.726562 C 377.398438 60.558594 377.566406 60.21875 377.90625 60.046875 C 377.738281 60.21875 377.90625 60.21875 377.90625 60.046875 C 379.773438 59.03125 382.148438 58.859375 384.015625 58.691406 Z M 384.015625 58.691406 " fill-opacity="1" fill-rule="nonzero"/><path fill="#2e1715" d="M 409.980469 58.859375 C 411.507812 59.03125 415.921875 59.539062 416.429688 61.40625 C 416.601562 61.914062 416.261719 62.253906 415.921875 62.59375 C 413.886719 63.78125 410.660156 63.441406 408.453125 63.105469 C 407.265625 62.933594 403.023438 62.253906 402.683594 60.898438 C 402.515625 60.558594 402.683594 60.21875 403.023438 60.046875 C 404.71875 58.519531 407.945312 58.691406 409.980469 58.859375 Z M 409.980469 58.859375 " fill-opacity="1" fill-rule="nonzero"/><path fill="#2e1715" d="M 446.46875 63.953125 C 444.941406 64.800781 443.925781 65.820312 443.074219 67.347656 C 443.753906 67.6875 444.261719 68.535156 444.261719 69.214844 C 444.261719 70.230469 443.925781 71.078125 443.414062 71.929688 C 442.398438 73.625 441.207031 75.152344 439.851562 76.679688 C 439.679688 77.019531 439.339844 77.019531 439.171875 77.019531 L 438.832031 77.019531 C 438.664062 77.019531 438.664062 77.019531 438.664062 77.019531 C 438.152344 77.019531 437.476562 76.511719 437.644531 75.832031 C 438.324219 73.117188 439.171875 70.402344 440.359375 67.6875 C 441.378906 65.480469 442.734375 63.273438 445.113281 62.253906 C 446.300781 61.746094 447.316406 63.273438 446.46875 63.953125 Z M 446.46875 63.953125 " fill-opacity="1" fill-rule="nonzero"/><path fill="#f2f2f2" d="M 387.242188 85.675781 L 403.023438 85.335938 C 403.023438 85.335938 403.363281 91.277344 395.214844 91.613281 C 387.070312 91.953125 387.242188 85.675781 387.242188 85.675781 Z M 387.242188 85.675781 " fill-opacity="1" fill-rule="nonzero"/><path fill="#2e1715" d="M 386.5625 68.023438 C 386.050781 67.347656 385.375 67.007812 384.523438 66.667969 C 384.183594 66.496094 383.675781 66.496094 383.335938 66.496094 C 382.996094 66.496094 382.65625 66.496094 382.148438 66.667969 C 382.148438 66.667969 381.980469 66.667969 381.980469 66.667969 C 381.980469 66.667969 381.808594 66.667969 381.808594 66.667969 C 381.46875 66.496094 381.128906 66.160156 380.960938 65.988281 C 380.621094 65.820312 380.113281 65.648438 379.773438 65.820312 C 379.433594 65.820312 378.925781 66.160156 378.753906 66.496094 C 378.585938 66.835938 378.414062 67.175781 378.585938 67.6875 C 378.753906 68.023438 378.925781 68.363281 379.265625 68.703125 C 379.773438 69.214844 380.28125 69.550781 380.960938 69.722656 C 381.300781 69.890625 381.640625 69.890625 381.980469 69.890625 C 382.320312 69.890625 382.65625 69.890625 382.996094 69.722656 C 383.167969 69.722656 383.335938 69.722656 383.335938 69.722656 C 383.507812 69.722656 383.507812 69.722656 383.675781 69.890625 C 383.847656 69.890625 383.847656 70.0625 384.015625 70.0625 C 384.015625 70.0625 384.183594 70.230469 384.183594 70.230469 C 384.695312 70.910156 385.710938 70.910156 386.390625 70.402344 C 386.902344 69.550781 387.070312 68.703125 386.5625 68.023438 Z M 386.5625 68.023438 " fill-opacity="1" fill-rule="nonzero"/><path fill="#2e1715" d="M 414.394531 67.347656 C 413.886719 66.667969 413.035156 66.328125 412.359375 66.835938 C 412.1875 67.007812 411.847656 67.347656 411.507812 67.347656 C 411.679688 67.347656 411.679688 67.347656 411.507812 67.347656 C 411.507812 67.347656 411.339844 67.347656 411.339844 67.347656 C 411.339844 67.347656 411.339844 67.347656 411.167969 67.347656 C 411.167969 67.347656 411.167969 67.347656 411 67.347656 C 411 67.347656 410.832031 67.347656 410.832031 67.175781 C 410.492188 67.007812 410.152344 66.835938 409.640625 66.667969 C 408.113281 66.328125 406.585938 66.835938 405.230469 67.6875 C 404.550781 68.023438 404.210938 69.042969 404.71875 69.722656 C 405.230469 70.402344 406.078125 70.742188 406.757812 70.230469 C 407.097656 70.0625 407.265625 69.890625 407.605469 69.722656 C 407.605469 69.722656 407.773438 69.722656 407.773438 69.722656 C 407.945312 69.722656 408.113281 69.550781 408.285156 69.550781 C 408.285156 69.550781 408.453125 69.550781 408.453125 69.550781 C 408.453125 69.550781 408.625 69.550781 408.625 69.550781 C 408.625 69.550781 408.792969 69.550781 408.792969 69.550781 C 408.792969 69.550781 408.964844 69.550781 408.964844 69.550781 C 409.8125 70.0625 410.660156 70.230469 411.507812 70.0625 C 412.1875 69.890625 412.867188 69.550781 413.546875 69.214844 C 414.394531 69.042969 414.902344 68.023438 414.394531 67.347656 Z M 414.394531 67.347656 " fill-opacity="1" fill-rule="nonzero"/><path fill="#f6af9a" d="M 340.910156 192.085938 C 340.398438 191.746094 342.605469 179.1875 342.777344 177.828125 C 343.453125 172.738281 344.132812 167.644531 345.832031 162.894531 C 349.394531 151.691406 357.539062 145.242188 367.894531 140.324219 C 389.105469 130.648438 374.171875 211.261719 374.171875 211.261719 C 374.171875 211.261719 340.910156 192.085938 340.910156 192.085938 Z M 340.910156 192.085938 " fill-opacity="1" fill-rule="nonzero"/><path fill="#f6af9a" d="M 302.554688 138.796875 C 304.929688 134.042969 309.683594 135.738281 309.683594 135.738281 C 313.925781 131.835938 316.808594 134.722656 316.808594 134.722656 L 320.375 133.875 L 337.683594 135.0625 C 339.890625 137.265625 337.34375 139.8125 337.34375 139.8125 L 324.109375 141.679688 L 327.164062 155.765625 L 332.085938 144.90625 C 335.308594 141.679688 336.328125 144.566406 336.328125 144.566406 L 334.460938 162.894531 L 331.746094 166.796875 L 325.296875 179.695312 L 326.652344 186.992188 L 305.4375 190.046875 C 304.929688 186.3125 304.589844 182.582031 303.910156 179.015625 C 303.574219 177.488281 303.402344 175.960938 302.894531 174.433594 C 302.214844 172.738281 301.367188 171.039062 300.6875 169.34375 C 299.839844 166.628906 298.992188 163.914062 298.140625 161.195312 C 296.613281 155.765625 295.257812 150.503906 294.070312 145.074219 C 297.125 138.117188 302.554688 138.796875 302.554688 138.796875 Z M 302.554688 138.796875 " fill-opacity="1" fill-rule="nonzero"/><path fill="#2e1715" d="M 317.660156 135.570312 C 318.675781 140.324219 319.355469 145.242188 319.695312 150.164062 C 319.695312 150.84375 318.847656 150.84375 318.675781 150.164062 C 318.335938 145.242188 317.660156 140.324219 316.640625 135.570312 C 316.46875 135.0625 317.488281 134.890625 317.660156 135.570312 Z M 317.660156 135.570312 " fill-opacity="1" fill-rule="nonzero"/><path fill="#2e1715" d="M 310.191406 136.25 C 311.886719 141.171875 313.414062 145.921875 315.113281 150.84375 C 315.28125 151.355469 314.433594 151.691406 314.265625 151.183594 C 312.566406 146.261719 311.039062 141.511719 309.34375 136.589844 C 309.171875 135.910156 310.023438 135.570312 310.191406 136.25 Z M 310.191406 136.25 " fill-opacity="1" fill-rule="nonzero"/><path fill="#2e1715" d="M 319.523438 150.335938 C 319.355469 151.355469 318.507812 152.371094 317.488281 152.710938 C 316.300781 153.050781 315.113281 152.710938 314.433594 151.863281 C 314.265625 151.691406 314.433594 151.355469 314.605469 151.183594 C 314.773438 151.015625 315.113281 151.183594 315.28125 151.355469 C 315.28125 151.355469 315.28125 151.355469 315.453125 151.523438 C 315.453125 151.523438 315.453125 151.523438 315.621094 151.691406 C 315.792969 151.691406 315.792969 151.863281 315.960938 151.863281 C 315.960938 151.863281 316.132812 151.863281 316.132812 151.863281 C 316.132812 151.863281 316.132812 151.863281 316.300781 151.863281 C 316.46875 151.863281 316.46875 151.863281 316.640625 151.863281 C 316.640625 151.863281 316.808594 151.863281 316.808594 151.863281 C 316.808594 151.863281 316.808594 151.863281 316.980469 151.863281 C 317.148438 151.863281 317.148438 151.863281 317.320312 151.863281 C 317.320312 151.863281 317.320312 151.863281 317.488281 151.863281 C 317.488281 151.863281 317.660156 151.863281 317.660156 151.863281 C 317.828125 151.863281 317.996094 151.691406 318.167969 151.691406 C 318.167969 151.691406 318.167969 151.691406 318.335938 151.691406 C 318.335938 151.691406 318.507812 151.523438 318.507812 151.523438 C 318.507812 151.523438 318.507812 151.355469 318.675781 151.355469 C 318.675781 151.355469 318.847656 151.183594 318.847656 151.183594 C 318.847656 151.183594 318.847656 151.015625 318.847656 151.015625 C 318.847656 150.84375 318.847656 151.015625 318.847656 151.015625 C 318.847656 150.84375 318.847656 150.84375 318.847656 150.675781 C 318.847656 150.503906 319.1875 150.164062 319.355469 150.335938 C 319.355469 149.828125 319.523438 150.164062 319.523438 150.335938 Z M 319.523438 150.335938 " fill-opacity="1" fill-rule="nonzero"/><path fill="#2e1715" d="M 314.773438 151.691406 C 314.433594 152.203125 313.925781 152.882812 313.246094 153.21875 C 312.738281 153.558594 312.226562 153.730469 311.550781 153.730469 C 310.359375 153.730469 309.171875 153.21875 308.664062 152.203125 C 308.492188 152.03125 308.492188 151.691406 308.832031 151.523438 C 309.003906 151.355469 309.34375 151.355469 309.511719 151.691406 C 310.023438 152.371094 310.699219 152.882812 311.550781 152.710938 C 311.886719 152.710938 312.398438 152.542969 312.738281 152.371094 C 313.246094 152.03125 313.585938 151.523438 313.925781 151.015625 C 314.09375 150.84375 314.433594 150.84375 314.605469 151.015625 C 314.941406 151.183594 314.941406 151.523438 314.773438 151.691406 Z M 314.773438 151.691406 " fill-opacity="1" fill-rule="nonzero"/><path fill="#2e1715" d="M 303.234375 139.472656 C 305.269531 143.378906 307.304688 147.28125 309.34375 151.183594 C 309.683594 151.691406 308.664062 152.03125 308.492188 151.523438 C 306.457031 147.621094 304.421875 143.714844 302.382812 139.8125 C 302.046875 139.304688 302.894531 138.964844 303.234375 139.472656 Z M 303.234375 139.472656 " fill-opacity="1" fill-rule="nonzero"/><path fill="#2e1715" d="M 309.34375 151.863281 C 309.003906 153.21875 308.15625 154.238281 306.796875 154.578125 C 305.4375 154.917969 303.910156 154.578125 303.0625 153.558594 C 302.894531 153.390625 302.894531 153.050781 303.0625 152.882812 C 303.234375 152.710938 303.574219 152.710938 303.742188 152.882812 C 304.421875 153.558594 305.609375 154.070312 306.628906 153.730469 C 307.644531 153.390625 308.324219 152.710938 308.492188 151.691406 C 308.492188 151.183594 309.34375 151.183594 309.34375 151.863281 Z M 309.34375 151.863281 " fill-opacity="1" fill-rule="nonzero"/><path fill="#2e1715" d="M 297.972656 144.566406 C 299.839844 147.449219 301.707031 150.335938 303.742188 153.050781 C 304.082031 153.558594 303.234375 154.070312 302.894531 153.558594 C 300.855469 150.84375 298.992188 147.960938 297.125 145.074219 C 296.953125 144.734375 297.632812 144.054688 297.972656 144.566406 Z M 297.972656 144.566406 " fill-opacity="1" fill-rule="nonzero"/><path fill="#2e1715" d="M 322.242188 159.839844 C 322.582031 159.328125 323.429688 160.007812 322.917969 160.519531 C 320.542969 163.742188 318.675781 167.304688 317.660156 171.039062 C 317.488281 171.550781 316.46875 171.550781 316.640625 170.871094 C 317.996094 166.96875 319.863281 163.234375 322.242188 159.839844 Z M 322.242188 159.839844 " fill-opacity="1" fill-rule="nonzero"/><path fill="#2e1715" d="M 305.4375 176.472656 C 305.609375 176.472656 305.949219 176.472656 306.117188 176.808594 C 306.117188 176.980469 306.289062 177.148438 306.457031 177.488281 C 306.457031 177.488281 306.457031 177.660156 306.457031 177.660156 C 306.457031 177.828125 306.628906 177.828125 306.628906 178 C 306.796875 178.167969 306.964844 178.335938 306.964844 178.507812 C 306.964844 178.507812 306.964844 178.507812 307.136719 178.675781 C 307.136719 178.847656 307.304688 178.847656 307.304688 178.847656 C 307.476562 179.015625 307.476562 179.355469 307.304688 179.527344 C 307.136719 179.695312 306.796875 179.695312 306.628906 179.527344 C 305.949219 178.847656 305.269531 178 304.929688 176.980469 C 304.929688 176.808594 305.101562 176.472656 305.4375 176.472656 Z M 305.4375 176.472656 " fill-opacity="1" fill-rule="nonzero"/><path fill="#f6af9a" d="M 340.910156 192.085938 C 340.910156 192.085938 336.496094 238.414062 336.496094 237.566406 C 336.496094 236.71875 326.144531 184.109375 326.144531 184.109375 L 305.269531 188.011719 C 308.15625 212.957031 311.886719 237.738281 314.09375 262.683594 C 314.265625 265.398438 314.433594 267.945312 315.28125 270.660156 C 319.1875 282.710938 333.101562 290.6875 345.320312 288.140625 C 358.390625 285.425781 360.425781 269.640625 362.632812 258.78125 C 366.535156 239.773438 371.457031 220.765625 376.210938 201.925781 C 376.210938 201.757812 376.378906 201.417969 376.378906 201.25 Z M 340.910156 192.085938 " fill-opacity="1" fill-rule="nonzero"/><path fill="#2e1715" d="M 347.359375 257.59375 C 346.171875 253.011719 344.472656 248.597656 342.097656 244.355469 C 341.585938 243.335938 340.058594 244.1875 340.570312 245.203125 C 342.777344 249.277344 344.472656 253.519531 345.660156 257.933594 C 346 259.121094 347.699219 258.609375 347.359375 257.59375 Z M 347.359375 257.59375 " fill-opacity="1" fill-rule="nonzero"/><path fill="#ffcc70" d="M 361.785156 295.097656 L 361.785156 313.429688 C 361.785156 313.429688 331.234375 413.898438 332.253906 469.5625 C 333.273438 525.398438 311.886719 735.839844 311.886719 735.839844 L 347.699219 735.839844 L 409.8125 420.6875 L 419.484375 735.839844 L 457.332031 735.839844 L 487.878906 411.859375 C 487.878906 411.859375 494.667969 344.484375 461.742188 311.902344 L 461.066406 292.554688 C 461.066406 292.554688 408.285156 284.578125 361.785156 295.097656 Z M 361.785156 295.097656 " fill-opacity="1" fill-rule="nonzero"/><path fill="#2e1715" d="M 396.914062 124.707031 L 367.894531 140.152344 C 367.894531 140.152344 366.535156 157.292969 359.40625 171.550781 C 352.28125 185.804688 349.054688 204.472656 358.050781 216.183594 L 361.613281 295.097656 C 361.613281 295.097656 401.328125 311.902344 460.894531 292.554688 L 460.894531 220.085938 C 460.894531 220.085938 441.207031 178.335938 470.90625 145.753906 L 432.554688 120.636719 L 396.914062 177.148438 Z M 396.914062 124.707031 " fill-opacity="1" fill-rule="nonzero"/><path fill="#f6af9a" d="M 471.078125 145.753906 C 471.078125 145.753906 486.183594 154.917969 489.746094 179.527344 C 493.308594 204.132812 495.347656 213.46875 495.347656 213.46875 L 461.402344 221.273438 C 461.402344 221.273438 433.0625 172.90625 471.078125 145.753906 Z M 471.078125 145.753906 " fill-opacity="1" fill-rule="nonzero"/><path fill="#f2f2f2" d="M 402.683594 288.140625 L 340.058594 295.949219 C 337.34375 296.289062 334.96875 294.421875 334.628906 291.703125 L 323.429688 201.757812 C 323.089844 199.042969 324.957031 196.667969 327.671875 196.328125 L 390.296875 188.519531 C 393.011719 188.179688 395.386719 190.046875 395.726562 192.761719 L 406.925781 282.710938 C 407.265625 285.425781 405.398438 287.800781 402.683594 288.140625 Z M 402.683594 288.140625 " fill-opacity="1" fill-rule="nonzero"/><path fill="#2e1715" d="M 334.871094 194.808594 L 383.539062 188.71875 L 384.445312 195.960938 L 335.777344 202.046875 Z M 334.871094 194.808594 " fill-opacity="1" fill-rule="nonzero"/><path fill="#011e31" d="M 374.511719 235.191406 C 372.476562 231.457031 368.234375 229.082031 363.648438 229.589844 C 357.710938 230.269531 353.46875 235.699219 354.148438 241.808594 C 354.824219 247.75 360.257812 251.992188 366.367188 251.3125 C 370.269531 250.804688 373.492188 248.257812 375.019531 244.863281 C 370.4375 243.847656 369.929688 236.71875 374.511719 235.191406 Z M 374.511719 235.191406 " fill-opacity="1" fill-rule="nonzero"/><path fill="#011e31" d="M 363.988281 227.894531 C 363.988281 226.195312 365.007812 224.667969 366.195312 223.652344 C 367.554688 222.632812 369.082031 222.125 370.777344 221.785156 C 370.949219 222.972656 370.097656 224.839844 369.421875 225.6875 C 368.0625 227.382812 366.195312 227.894531 363.988281 227.894531 Z M 363.988281 227.894531 " fill-opacity="1" fill-rule="nonzero"/><path fill="#f6af9a" d="M 459.027344 212.28125 L 470.90625 257.253906 L 397.59375 278.296875 C 397.59375 278.296875 391.144531 277.28125 388.769531 275.074219 C 386.390625 272.867188 381.46875 272.867188 380.113281 272.527344 C 378.753906 272.359375 367.382812 271 367.382812 271 C 367.382812 271 364.839844 272.359375 366.367188 274.226562 C 366.367188 274.226562 374.34375 277.789062 376.210938 278.296875 C 378.074219 278.808594 380.792969 281.523438 381.640625 283.558594 C 382.320312 285.59375 380.792969 288.140625 380.792969 288.140625 L 362.292969 292.722656 L 352.449219 294.421875 L 343.117188 294.25 C 343.117188 294.25 341.078125 295.097656 341.078125 296.796875 C 341.078125 298.324219 352.449219 299.34375 352.449219 299.34375 L 377.058594 301.71875 C 377.058594 301.71875 399.96875 296.289062 402.515625 295.4375 C 405.058594 294.761719 488.386719 285.59375 488.386719 285.59375 C 488.386719 285.59375 506.886719 282.199219 505.699219 265.398438 L 494.496094 207.019531 Z M 459.027344 212.28125 " fill-opacity="1" fill-rule="nonzero"/><path fill="#f2f2f2" d="M 343.625 138.117188 L 296.785156 169.851562 C 296.445312 170.023438 295.933594 170.359375 295.597656 170.359375 L 288.808594 173.246094 C 288.128906 173.585938 287.621094 172.90625 288.128906 172.398438 L 293.390625 167.136719 C 293.558594 166.796875 293.898438 166.457031 294.238281 166.289062 L 341.078125 134.550781 C 342.4375 133.703125 343.964844 133.875 344.644531 134.890625 C 344.980469 135.402344 344.980469 136.078125 344.8125 136.589844 C 344.8125 137.097656 344.304688 137.605469 343.625 138.117188 Z M 343.625 138.117188 " fill-opacity="1" fill-rule="nonzero"/><path fill="#2e1715" d="M 492.632812 260.476562 C 488.050781 258.273438 483.128906 256.574219 478.207031 255.386719 C 477.1875 255.046875 476.679688 256.746094 477.695312 257.082031 C 482.449219 258.273438 487.199219 259.96875 491.613281 262.003906 C 492.800781 262.34375 493.648438 260.816406 492.632812 260.476562 Z M 492.632812 260.476562 " fill-opacity="1" fill-rule="nonzero"/><path fill="#2e1715" d="M 480.410156 357.554688 C 466.15625 351.953125 458.347656 337.527344 453.9375 323.78125 C 453.597656 322.761719 451.898438 323.101562 452.238281 324.289062 C 455.804688 335.828125 461.574219 347.199219 471.417969 354.667969 C 473.960938 356.535156 476.847656 358.230469 479.902344 359.417969 C 480.921875 359.589844 481.429688 357.890625 480.410156 357.554688 Z M 480.410156 357.554688 " fill-opacity="1" fill-rule="nonzero"/><path fill="#2e1715" d="M 369.082031 325.816406 C 367.894531 330.230469 366.027344 334.472656 363.480469 338.207031 C 362.292969 340.074219 360.765625 341.769531 359.238281 343.46875 C 357.710938 345.164062 355.675781 346.859375 353.296875 347.03125 C 352.28125 347.03125 352.28125 348.726562 353.296875 348.726562 C 355.675781 348.558594 357.710938 347.199219 359.40625 345.671875 C 361.273438 343.976562 362.800781 341.941406 364.328125 339.902344 C 367.214844 335.828125 369.421875 331.078125 370.777344 326.15625 C 370.949219 325.136719 369.421875 324.628906 369.082031 325.816406 Z M 369.082031 325.816406 " fill-opacity="1" fill-rule="nonzero"/><path fill="#2e1715" d="M 447.828125 579.027344 C 444.261719 575.800781 441.207031 572.070312 438.492188 568.164062 C 437.136719 566.296875 435.949219 564.261719 434.589844 562.394531 C 433.230469 560.359375 432.042969 558.320312 431.875 555.777344 C 431.875 554.757812 430.175781 554.757812 430.175781 555.777344 C 430.175781 558.152344 431.367188 560.359375 432.554688 562.394531 C 433.910156 564.601562 435.269531 566.636719 436.625 568.675781 C 439.511719 572.746094 442.566406 576.820312 446.46875 580.214844 C 447.488281 580.894531 448.675781 579.707031 447.828125 579.027344 Z M 447.828125 579.027344 " fill-opacity="1" fill-rule="nonzero"/><path fill="#2e1715" d="M 347.527344 565.789062 C 343.453125 563.921875 340.058594 560.867188 337.855469 556.964844 C 337.34375 555.945312 335.816406 556.792969 336.328125 557.8125 C 338.703125 561.886719 342.265625 565.28125 346.507812 567.316406 C 346.847656 567.484375 347.359375 567.484375 347.699219 566.976562 C 348.035156 566.636719 348.035156 565.957031 347.527344 565.789062 Z M 347.527344 565.789062 " fill-opacity="1" fill-rule="nonzero"/></svg>